<svg width="16" height="16" viewBox="0 0 16 16" fill="none" xmlns="http://www.w3.org/2000/svg">
<path d="M2 5L2.92937 13.8284C2.94876 14.0128 3.03571 14.1834 3.17345 14.3074C3.31119 14.4314 3.48997 14.5 3.67531 14.5H12.3247C12.51 14.5 12.6888 14.4314 12.8266 14.3074C12.9643 14.1834 13.0512 14.0128 13.0706 13.8284L14 5H2ZM9.75 11.7956L8 10.0456L6.25 11.7956L5.45437 11L7.20437 9.25L5.45437 7.5L6.25 6.70437L8 8.45438L9.75 6.70437L10.5456 7.5L8.79562 9.25L10.5456 11L9.75 11.7956Z" fill="#546174"/>
<path d="M14.625 1.5H1.375C1.16789 1.5 1 1.66789 1 1.875V3.625C1 3.83211 1.16789 4 1.375 4H14.625C14.8321 4 15 3.83211 15 3.625V1.875C15 1.66789 14.8321 1.5 14.625 1.5Z" fill="#546174"/>
</svg>
