<svg width="16" height="16" viewBox="0 0 16 16" fill="none" xmlns="http://www.w3.org/2000/svg">
<path d="M2.94667 13.7193C2.85417 13.7192 2.76273 13.6998 2.67814 13.6624C2.59355 13.6249 2.51767 13.5703 2.45533 13.502C2.39187 13.4343 2.34344 13.3539 2.31322 13.2661C2.283 13.1783 2.27168 13.0851 2.28 12.9927L2.44333 11.1967L9.98867 3.65401L12.3467 6.01134L4.80333 13.5533L3.00733 13.7167C2.98717 13.7185 2.96692 13.7194 2.94667 13.7193V13.7193ZM12.8173 5.54001L10.46 3.18268L11.874 1.76868C11.9359 1.70669 12.0094 1.65752 12.0904 1.62397C12.1713 1.59042 12.2581 1.57315 12.3457 1.57315C12.4333 1.57315 12.52 1.59042 12.601 1.62397C12.6819 1.65752 12.7554 1.70669 12.8173 1.76868L14.2313 3.18268C14.2933 3.24459 14.3425 3.31812 14.376 3.39905C14.4096 3.47998 14.4269 3.56673 14.4269 3.65434C14.4269 3.74195 14.4096 3.8287 14.376 3.90964C14.3425 3.99057 14.2933 4.06409 14.2313 4.12601L12.818 5.53934L12.8173 5.54001V5.54001Z" fill="#546174"/>
</svg>
